HIERARCHY
ROOT hip
{
  OFFSET 0 0 0
  CHANNELS 6 Xposition Yposition Zposition Zrotation Yrotation Xrotation
  JOINT abdomen
  {
    OFFSET 0 20.6881 -0.73152
    CHANNELS 3 Zrotation Xrotation Yrotation
    JOINT chest
    {
      OFFSET 0 11.7043 -0.48768
      CHANNELS 3 Zrotation Xrotation Yrotation
      JOINT neck
      {
        OFFSET 0 22.1894 -2.19456
        CHANNELS 3 Zrotation Xrotation Yrotation
        JOINT head
        {
          OFFSET -0.24384 7.07133 1.2192
          CHANNELS 3 Zrotation Xrotation Yrotation
          JOINT leftEye
          {
            OFFSET 4.14528 8.04674 8.04672
            CHANNELS 3 Zrotation Xrotation Yrotation
            End Site
            {
              OFFSET 1 0 0
            }
          }
          JOINT rightEye
          {
            OFFSET -3.6576 8.04674 8.04672
            CHANNELS 3 Zrotation Xrotation Yrotation
            End Site
            {
              OFFSET 1 0 0
            }
          }
        }
      }
      JOINT rCollar
      {
        OFFSET -2.68224 19.2634 -4.8768
        CHANNELS 3 Zrotation Xrotation Yrotation
        JOINT rShldr
        {
          OFFSET -8.77824 -1.95073 1.46304
          CHANNELS 3 Zrotation Xrotation Yrotation
          JOINT rForeArm
          {
            OFFSET -28.1742 -1.7115 0.48768
            CHANNELS 3 Zrotation Xrotation Yrotation
            JOINT rHand
            {
              OFFSET -22.5879 0.773209 7.07136
              CHANNELS 3 Zrotation Xrotation Yrotation
              JOINT rThumb1
              {
                OFFSET -1.2192 -0.487915 3.41376
                CHANNELS 3 Zrotation Xrotation Yrotation
                JOINT rThumb2
                {
                  OFFSET -3.37035 -0.52449 3.41376
                  CHANNELS 3 Zrotation Xrotation Yrotation
                  End Site
                  {
                    OFFSET -1.78271 -1.18214 1.43049
                  }
                }
              }
              JOINT rIndex1
              {
                OFFSET -7.75947 0.938293 5.60832
                CHANNELS 3 Zrotation Xrotation Yrotation
                JOINT rIndex2
                {
                  OFFSET -2.54057 -0.884171 1.56538
                  CHANNELS 3 Zrotation Xrotation Yrotation
                  End Site
                  {
                    OFFSET -1.62519 -0.234802 1.16502
                  }
                }
              }
              JOINT rMid1
              {
                OFFSET -8.24714 1.18213 3.41376
                CHANNELS 3 Zrotation Xrotation Yrotation
                JOINT rMid2
                {
                  OFFSET -3.10165 -0.590103 1.0647
                  CHANNELS 3 Zrotation Xrotation Yrotation
                  End Site
                  {
                    OFFSET -2.48547 -0.328903 0.83742
                  }
                }
              }
              JOINT rRing1
              {
                OFFSET -8.82822 0.546677 1.51678
                CHANNELS 3 Zrotation Xrotation Yrotation
                JOINT rRing2
                {
                  OFFSET -2.60934 -0.819778 -0.0198488
                  CHANNELS 3 Zrotation Xrotation Yrotation
                  End Site
                  {
                    OFFSET -2.33842 -0.294052 0.168128
                  }
                }
              }
              JOINT rPinky1
              {
                OFFSET -8.27202 -0.0477905 -0.4584
                CHANNELS 3 Zrotation Xrotation Yrotation
                JOINT rPinky2
                {
                  OFFSET -1.82734 -0.647385 -0.700984
                  CHANNELS 3 Zrotation Xrotation Yrotation
                  End Site
                  {
                    OFFSET -1.69225 -0.51767 -0.607171
                  }
                }
              }
            }
          }
        }
      }
      JOINT lCollar
      {
        OFFSET 2.68224 19.2634 -4.8768
        CHANNELS 3 Zrotation Xrotation Yrotation
        JOINT lShldr
        {
          OFFSET 8.77824 -1.95073 1.46304
          CHANNELS 3 Zrotation Xrotation Yrotation
          JOINT lForeArm
          {
            OFFSET 28.1742 -1.7115 0.48768
            CHANNELS 3 Zrotation Xrotation Yrotation
            JOINT lHand
            {
              OFFSET 22.5879 0.773209 7.07136
              CHANNELS 3 Zrotation Xrotation Yrotation
              JOINT lThumb1
              {
                OFFSET 1.2192 -0.487915 3.41376
                CHANNELS 3 Zrotation Xrotation Yrotation
                JOINT lThumb2
                {
                  OFFSET 3.37035 -0.52449 3.41376
                  CHANNELS 3 Zrotation Xrotation Yrotation
                  End Site
                  {
                    OFFSET 1.78271 -1.18214 1.43049
                  }
                }
              }
              JOINT lIndex1
              {
                OFFSET 7.75947 0.938293 5.60832
                CHANNELS 3 Zrotation Xrotation Yrotation
                JOINT lIndex2
                {
                  OFFSET 2.54057 -0.884171 1.56538
                  CHANNELS 3 Zrotation Xrotation Yrotation
                  End Site
                  {
                    OFFSET 1.62519 -0.234802 1.16502
                  }
                }
              }
              JOINT lMid1
              {
                OFFSET 8.24714 1.18213 3.41376
                CHANNELS 3 Zrotation Xrotation Yrotation
                JOINT lMid2
                {
                  OFFSET 3.10165 -0.590103 1.0647
                  CHANNELS 3 Zrotation Xrotation Yrotation
                  End Site
                  {
                    OFFSET 2.48547 -0.328903 0.83742
                  }
                }
              }
              JOINT lRing1
              {
                OFFSET 8.82822 0.546677 1.51678
                CHANNELS 3 Zrotation Xrotation Yrotation
                JOINT lRing2
                {
                  OFFSET 2.60934 -0.819778 -0.0198488
                  CHANNELS 3 Zrotation Xrotation Yrotation
                  End Site
                  {
                    OFFSET 2.33842 -0.294052 0.168128
                  }
                }
              }
              JOINT lPinky1
              {
                OFFSET 8.27202 -0.0477905 -0.4584
                CHANNELS 3 Zrotation Xrotation Yrotation
                JOINT lPinky2
                {
                  OFFSET 1.82734 -0.647385 -0.700984
                  CHANNELS 3 Zrotation Xrotation Yrotation
                  End Site
                  {
                    OFFSET 1.69225 -0.51767 -0.607171
                  }
                }
              }
            }
          }
        }
      }
    }
  }
  JOINT rButtock
  {
    OFFSET -8.77824 4.35084 1.2192
    CHANNELS 3 Zrotation Xrotation Yrotation
    JOINT rThigh
    {
      OFFSET 0 -1.70687 -2.19456
      CHANNELS 3 Zrotation Xrotation Yrotation
      JOINT rShin
      {
        OFFSET 0 -36.8199 0.73152
        CHANNELS 3 Zrotation Xrotation Yrotation
        JOINT rFoot
        {
          OFFSET 0.73152 -45.1104 -5.12064
          CHANNELS 3 Zrotation Xrotation Yrotation
          End Site
          {
            OFFSET -1.1221 -3.69964 12.103
          }
        }
      }
    }
  }
  JOINT lButtock
  {
    OFFSET 8.77824 4.35084 1.2192
    CHANNELS 3 Zrotation Xrotation Yrotation
    JOINT lThigh
    {
      OFFSET 0 -1.70687 -2.19456
      CHANNELS 3 Zrotation Xrotation Yrotation
      JOINT lShin
      {
        OFFSET 0 -36.8199 0.73152
        CHANNELS 3 Zrotation Xrotation Yrotation
        JOINT lFoot
        {
          OFFSET -0.73152 -45.1104 -5.12064
          CHANNELS 3 Zrotation Xrotation Yrotation
          End Site
          {
            OFFSET 1.1221 -3.69964 12.103
          }
        }
      }
    }
  }
}
MOTION
Frames:	7
Frame Time:	0.00833333
3.28469 82.7478 -112.645 4.9506 5.4507 4.665 -7.51572 4.38411 -1.0844 4.14579 -1.8642 -0.293388 -2.20884 0.412652 -1.71861 -2.31283 -1.77834 -2.81305 -0.0 0.0 0.0 -0.0 0.0 0.0 1.47365e-13 -1.63102e-13 1.32667e-13 76.8127 -0.752541 0.471173 -12.7342 -5.97701 23.0404 -0.107394 -9.30853 -1.31997 -3.46996e-10 6.11023e-10 1.75184e-09 -6.08585e-10 1.06707e-09 3.02793e-09 -3.46985e-10 6.11025e-10 1.75182e-09 7.73091 5.47488 0.417314 -3.46995e-10 6.11022e-10 1.75184e-09 2.90554 0.965183 0.102902 -3.46986e-10 6.11022e-10 1.75184e-09 10.2786 0.731801 0.0259123 -3.47e-10 6.11023e-10 1.75184e-09 2.22167 -0.733487 -0.20892 1.47244e-13 -1.63104e-13 1.32515e-13 -76.197 25.5468 -4.66161 16.1909 -8.86575 -30.0767 0.011236 3.02481 -0.425509 -1.38269e-09 -3.20356e-09 -6.89465e-10 -2.39264e-09 -5.54072e-09 -1.18507e-09 -1.3827e-09 -3.20355e-09 -6.89442e-10 -7.73091 5.47488 -0.417314 -1.38269e-09 -3.20355e-09 -6.89462e-10 -2.90554 0.965183 -0.102902 -1.3827e-09 -3.20355e-09 -6.89455e-10 -10.2786 0.731801 -0.0259123 -1.38269e-09 -3.20355e-09 -6.89463e-10 -2.22167 -0.733487 0.20892 -2.03217e-16 0.0 -3.88251e-19 -10.9059 -39.2877 -7.6453 -0.186143 30.7305 0.380438 -3.46234 -9.91223 -11.3604 2.03217e-16 0.0 3.88251e-19 -10.9313 -5.34126 -2.91613 0.0856389 19.2134 -0.294127 -0.489975 -15.6996 -3.00997
3.39677 82.809 -112.028 5.4074 5.6784 4.8042 -7.50908 4.35323 -1.28049 4.19981 -1.82348 -0.348313 -2.13517 0.265296 -1.73066 -2.47537 -1.74638 -2.855 -0.0 0.0 0.0 -0.0 0.0 0.0 2.19445e-13 -3.77491e-13 2.5385e-14 76.8458 -0.369388 0.681792 -12.7599 -5.99602 23.0907 -0.111403 -9.47765 -1.3444 5.12416e-10 -1.99707e-09 2.58115e-09 8.77072e-10 -3.44598e-09 4.46284e-09 5.12425e-10 -1.99707e-09 2.58113e-09 7.73091 5.47488 0.417314 5.12418e-10 -1.99707e-09 2.58115e-09 2.90554 0.965183 0.102902 5.12428e-10 -1.99707e-09 2.58115e-09 10.2786 0.731801 0.0259123 5.12413e-10 -1.99707e-09 2.58115e-09 2.22167 -0.733487 -0.20892 2.19343e-13 -3.77493e-13 2.51665e-14 -76.1616 25.5382 -4.78899 16.1788 -8.85432 -30.0509 0.0111228 3.00965 -0.423372 -1.38512e-09 -4.10674e-09 -1.91176e-09 -2.40174e-09 -7.10505e-09 -3.29962e-09 -1.38513e-09 -4.10673e-09 -1.91174e-09 -7.73091 5.47488 -0.417314 -1.38512e-09 -4.10673e-09 -1.91176e-09 -2.90554 0.965183 -0.102902 -1.38512e-09 -4.10673e-09 -1.91175e-09 -10.2786 0.731801 -0.0259123 -1.38512e-09 -4.10673e-09 -1.91176e-09 -2.22167 -0.733487 0.20892 -2.03217e-16 0.0 -3.88251e-19 -10.7343 -39.3808 -7.18566 -0.160819 28.732 0.32536 -3.61324 -9.73439 -12.1574 2.03217e-16 0.0 3.88251e-19 -10.9254 -4.612 -2.96559 0.0831378 18.3507 -0.268378 -0.506118 -15.5509 -3.06667
3.34982 82.8659 -111.513 5.195 5.7109 4.8876 -7.51804 4.25882 -1.41241 4.26414 -1.79539 -0.383619 -2.07984 0.175618 -1.74891 -2.59214 -1.70031 -2.90454 -0.0 0.0 0.0 -0.0 0.0 0.0 2.46944e-13 -4.85829e-13 -3.08613e-14 76.8687 -0.091066 0.831923 -12.781 -6.01166 23.1321 -0.114822 -9.61817 -1.36472 9.63877e-10 -3.27373e-09 2.96132e-09 1.65757e-09 -5.65507e-09 5.12075e-09 9.63883e-10 -3.27372e-09 2.9613e-09 7.73091 5.47488 0.417314 9.63878e-10 -3.27373e-09 2.96132e-09 2.90554 0.965183 0.102902 9.63889e-10 -3.27373e-09 2.96132e-09 10.2786 0.731801 0.0259123 9.63873e-10 -3.27373e-09 2.96132e-09 2.22167 -0.733487 -0.20892 2.46854e-13 -4.85831e-13 -3.11098e-14 -76.144 25.6293 -4.88497 16.1706 -8.8466 -30.0334 0.0110084 2.99425 -0.421201 -1.36528e-09 -4.44071e-09 -2.53522e-09 -2.36999e-09 -7.68366e-09 -4.37852e-09 -1.36528e-09 -4.4407e-09 -2.5352e-09 -7.73091 5.47488 -0.417314 -1.36528e-09 -4.44071e-09 -2.53521e-09 -2.90554 0.965183 -0.102902 -1.36528e-09 -4.4407e-09 -2.53521e-09 -10.2786 0.731801 -0.0259123 -1.36528e-09 -4.44071e-09 -2.53522e-09 -2.22167 -0.733487 0.20892 -2.03217e-16 0.0 -3.88251e-19 -10.5489 -39.5129 -6.54476 -0.139065 26.8423 0.277843 -3.80484 -9.66826 -13.0494 2.03217e-16 0.0 3.88251e-19 -10.9211 -3.9061 -2.98969 0.07979 17.4573 -0.242652 -0.533181 -15.3697 -3.16552
3.39444 82.9172 -110.988 5.4313 5.7745 5.2233 -7.54683 4.05819 -1.44503 4.34611 -1.78135 -0.388513 -2.05119 0.171394 -1.77755 -2.64993 -1.62094 -2.96771 -0.0 0.0 0.0 -0.0 0.0 0.0 2.01266e-13 -4.34438e-13 -5.30856e-15 76.8727 0.0600683 0.898027 -12.7952 -6.02219 23.1601 -0.117825 -9.74048 -1.38242 8.21668e-10 -2.4609e-09 2.68489e-09 1.41163e-09 -4.24801e-09 4.64297e-09 8.21673e-10 -2.4609e-09 2.68488e-09 7.73091 5.47488 0.417314 8.21669e-10 -2.4609e-09 2.6849e-09 2.90554 0.965183 0.102902 8.21678e-10 -2.4609e-09 2.6849e-09 10.2786 0.731801 0.0259123 8.21664e-10 -2.4609e-09 2.6849e-09 2.22167 -0.733487 -0.20892 2.0118e-13 -4.34438e-13 -5.52714e-15 -76.1519 25.8695 -4.9374 16.1691 -8.84528 -30.0305 0.0108154 2.96753 -0.417436 -1.32719e-09 -3.91123e-09 -2.24959e-09 -2.30323e-09 -6.76695e-09 -3.88525e-09 -1.3272e-09 -3.91123e-09 -2.24957e-09 -7.73091 5.47488 -0.417314 -1.32719e-09 -3.91123e-09 -2.24958e-09 -2.90554 0.965183 -0.102902 -1.32719e-09 -3.91123e-09 -2.24958e-09 -10.2786 0.731801 -0.0259123 -1.32719e-09 -3.91124e-09 -2.24959e-09 -2.22167 -0.733487 0.20892 -2.03217e-16 0.0 -3.88251e-19 -10.3237 -39.6956 -5.61681 -0.118452 25.036 0.237048 -4.06017 -9.73068 -14.0971 2.03217e-16 0.0 3.88251e-19 -10.917 -3.22665 -2.97058 0.0750749 16.4963 -0.216046 -0.579561 -15.1436 -3.33655
3.38271 82.9769 -110.48 5.5276 5.5085 5.4516 -7.59422 3.78126 -1.42777 4.44255 -1.77339 -0.377911 -2.03646 0.211157 -1.81093 -2.685 -1.52842 -3.03683 -0.0 0.0 0.0 -0.0 0.0 0.0 1.06545e-13 -2.85406e-13 6.79129e-14 76.8591 0.142532 0.917798 -12.8026 -6.02768 23.1747 -0.120619 -9.85346 -1.39877 3.39583e-10 -3.76023e-10 1.99753e-09 5.78036e-10 -6.39447e-10 3.45452e-09 3.39585e-10 -3.76018e-10 1.99752e-09 7.73091 5.47488 0.417314 3.39583e-10 -3.76024e-10 1.99753e-09 2.90554 0.965183 0.102902 3.3959e-10 -3.76024e-10 1.99753e-09 10.2786 0.731801 0.0259123 3.39577e-10 -3.76024e-10 1.99754e-09 2.22167 -0.733487 -0.20892 1.0646e-13 -2.85405e-13 6.77607e-14 -76.1822 26.1936 -4.95929 16.1701 -8.8462 -30.0325 0.0105537 2.93041 -0.412206 -1.2585e-09 -2.81184e-09 -1.40321e-09 -2.18148e-09 -4.86338e-09 -2.42234e-09 -1.2585e-09 -2.81183e-09 -1.40319e-09 -7.73091 5.47488 -0.417314 -1.2585e-09 -2.81184e-09 -1.4032e-09 -2.90554 0.965183 -0.102902 -1.2585e-09 -2.81184e-09 -1.4032e-09 -10.2786 0.731801 -0.0259123 -1.25849e-09 -2.81184e-09 -1.40321e-09 -2.22167 -0.733487 0.20892 -2.03217e-16 0.0 -3.88251e-19 -10.0685 -39.9093 -4.47002 -0.0983226 23.2974 0.200895 -4.37538 -9.86879 -15.2994 2.03217e-16 0.0 3.88251e-19 -10.9224 -2.57072 -2.92305 0.0696028 15.4802 -0.188591 -0.636875 -14.8823 -3.55471
3.39211 83.0539 -109.872 5.563 5.7121 5.4312 -7.65127 3.50171 -1.40266 4.53919 -1.77426 -0.36491 -2.02629 0.263506 -1.8438 -2.69971 -1.45082 -3.1041 -0.0 0.0 0.0 -0.0 0.0 0.0 9.01755e-15 -1.12942e-13 1.45183e-13 76.851 0.162786 0.915912 -12.8085 -6.03202 23.1861 -0.122444 -9.92704 -1.40943 -2.5486e-10 1.88839e-09 1.18175e-09 -4.49402e-10 3.27921e-09 2.04367e-09 -2.54859e-10 1.8884e-09 1.18174e-09 7.73091 5.47488 0.417314 -2.54861e-10 1.88839e-09 1.18175e-09 2.90554 0.965183 0.102902 -2.54857e-10 1.88839e-09 1.18175e-09 10.2786 0.731801 0.0259123 -2.54868e-10 1.88839e-09 1.18176e-09 2.22167 -0.733487 -0.20892 8.92958e-15 -1.1294e-13 1.45099e-13 -76.2194 26.5389 -4.9687 16.1703 -8.84642 -30.0329 0.0103901 2.90714 -0.408928 -1.15941e-09 -1.58442e-09 -4.32878e-10 -2.00657e-09 -2.73817e-09 -7.45069e-10 -1.15942e-09 -1.58442e-09 -4.32864e-10 -7.73091 5.47488 -0.417314 -1.15941e-09 -1.58443e-09 -4.32876e-10 -2.90554 0.965183 -0.102902 -1.15941e-09 -1.58443e-09 -4.32877e-10 -10.2786 0.731801 -0.0259123 -1.15941e-09 -1.58443e-09 -4.3289e-10 -2.22167 -0.733487 0.20892 -2.03217e-16 0.0 -3.88251e-19 -9.82087 -40.1287 -3.28197 -0.0808018 21.6955 0.170365 -4.72354 -10.0755 -16.5243 2.03217e-16 0.0 3.88251e-19 -10.937 -1.93336 -2.87625 0.06427 14.4826 -0.162293 -0.689949 -14.6067 -3.77065
3.35077 83.0683 -109.415 5.6035 5.6475 5.8821 -7.70983 3.29326 -1.41168 4.62177 -1.78675 -0.36261 -2.0114 0.297042 -1.87093 -2.6966 -1.41617 -3.1617 -0.0 0.0 0.0 -0.0 0.0 0.0 -4.50768e-14 8.74517e-15 1.82882e-13 76.8716 0.127285 0.917044 -12.818 -6.03912 23.2049 -0.122514 -9.9312 -1.41003 -7.34141e-10 3.23984e-09 5.20075e-10 -1.27688e-09 5.61656e-09 8.98685e-10 -7.34141e-10 3.23985e-09 5.20065e-10 7.73091 5.47488 0.417314 -7.34143e-10 3.23984e-09 5.20075e-10 2.90554 0.965183 0.102902 -7.34141e-10 3.23984e-09 5.20071e-10 10.2786 0.731801 0.0259123 -7.3415e-10 3.23984e-09 5.20084e-10 2.22167 -0.733487 -0.20892 -4.51744e-14 8.74711e-15 1.82832e-13 -76.2472 26.8429 -4.98376 16.1666 -8.843 -30.0252 0.0104827 2.92196 -0.411014 -1.03015e-09 -6.70898e-10 2.24595e-10 -1.78032e-09 -1.15655e-09 3.91305e-10 -1.03016e-09 -6.70902e-10 2.24608e-10 -7.73091 5.47488 -0.417314 -1.03015e-09 -6.70905e-10 2.24595e-10 -2.90554 0.965183 -0.102902 -1.03015e-09 -6.70906e-10 2.24592e-10 -10.2786 0.731801 -0.0259123 -1.03015e-09 -6.70906e-10 2.24579e-10 -2.22167 -0.733487 0.20892 -2.03217e-16 0.0 -3.88251e-19 -9.62357 -40.3355 -2.23383 -0.0678017 20.2992 0.146386 -5.07534 -10.3461 -17.6394 2.03217e-16 0.0 3.88251e-19 -10.959 -1.30968 -2.85929 0.0596931 13.577 -0.139068 -0.724843 -14.3376 -3.93534
